<svg width="693.05px" height="121.39999999999999px" xmlns="http://www.w3.org/2000/svg" viewBox="-96.52499999999998 14.300000000000004 693.05 121.39999999999999" style="background: rgba(0, 0, 0, 0);" preserveAspectRatio="xMidYMid"><defs><linearGradient id="editing-gradow-gradient" x1="0" x2="1" y1="0.5" y2="0.5" gradientUnits="objectBoundingBox"><stop offset="0" stop-color="#f0f"></stop><stop offset="1" stop-color="#0ff"></stop></linearGradient><filter id="editing-gradow-filter" x="-100%" y="-100%" width="300%" height="300%"><feFlood flood-color="#fffcd9" result="flood"></feFlood><feComposite operator="in" in2="SourceAlpha" in="flood" result="shadow"></feComposite><feOffset dx="-4" dy="-4" in="SourceGraphic" result="offset-1"></feOffset><feOffset dx="4" dy="4" in="shadow" result="offset-2"></feOffset><feMerge><feMergeNode in="offset-2"></feMergeNode><feMergeNode in="offset-1"></feMergeNode></feMerge></filter></defs><g filter="url(#editing-gradow-filter)"><g transform="translate(2.769987404346466, 104.76000022888184)"><path d="M7.68 0L0.64 0L8.32-42.24L22.08-42.24L32.06-13.18L37.38-42.24L44.48-42.18L36.67 0L22.02 0L12.80-27.97L7.68 0ZM48.86-1.92L48.86-1.92L48.86-1.92Q47.36-3.58 46.69-6.21L46.69-6.21L46.69-6.21Q46.02-8.83 46.02-13.12L46.02-13.12L46.02-13.12Q46.02-17.41 47.49-21.31L47.49-21.31L47.49-21.31Q48.96-25.22 51.65-28.03L51.65-28.03L51.65-28.03Q57.15-33.92 66.24-33.92L66.24-33.92L66.24-33.92Q69.50-33.92 71.87-32.83L71.87-32.83L82.82-33.92L78.08-8.96L78.08-8.96Q77.89-8.19 77.89-6.78L77.89-6.78L77.89-6.78Q77.89-5.38 78.75-4.48L78.75-4.48L78.75-4.48Q79.62-3.58 80.90-3.46L80.90-3.46L80.90-3.46Q80.26-1.28 77.92 0L77.92 0L77.92 0Q75.58 1.28 72.96 1.28L72.96 1.28L72.96 1.28Q70.34 1.28 68.58 0.29L68.58 0.29L68.58 0.29Q66.82-0.70 66.30-2.37L66.30-2.37L66.30-2.37Q65.28-0.77 63.10 0.26L63.10 0.26L63.10 0.26Q60.93 1.28 58.02 1.28L58.02 1.28L58.02 1.28Q55.10 1.28 52.74 0.51L52.74 0.51L52.74 0.51Q50.37-0.26 48.86-1.92ZM62.37-27.90L62.37-27.90L62.37-27.90Q61.63-26.75 60.99-24.80L60.99-24.80L60.99-24.80Q60.35-22.85 59.30-17.63L59.30-17.63L59.30-17.63Q58.24-12.42 58.24-8.70L58.24-8.70L58.24-8.70Q58.24-4.99 58.82-3.90L58.82-3.90L58.82-3.90Q59.39-2.82 60.42-2.82L60.42-2.82L60.42-2.82Q62.46-2.82 63.97-4.77L63.97-4.77L63.97-4.77Q65.47-6.72 66.05-10.18L66.05-10.18L69.44-28.93L69.44-28.93Q68.10-30.08 66.53-30.08L66.53-30.08L66.53-30.08Q64.96-30.08 64.03-29.57L64.03-29.57L64.03-29.57Q63.10-29.06 62.37-27.90ZM87.30-6.40L87.30-6.40L87.30-6.40Q87.30-8.13 88.19-12.48L88.19-12.48L91.58-29.76L87.81-29.76L88.06-31.68L88.06-31.68Q95.74-33.98 103.17-39.62L103.17-39.62L106.24-39.62L104.70-32.64L109.70-32.64L109.12-29.76L104.19-29.76L100.93-12.48L100.93-12.48Q100.10-8.51 100.10-7.17L100.10-7.17L100.10-7.17Q100.10-4.10 102.78-3.46L102.78-3.46L102.78-3.46Q102.14-1.28 99.84 0L99.84 0L99.84 0Q97.54 1.28 94.27 1.28L94.27 1.28L94.27 1.28Q91.01 1.28 89.15-0.77L89.15-0.77L89.15-0.77Q87.30-2.82 87.30-6.40ZM124.74-3.52L124.74-3.52L124.74-3.52Q122.75 1.28 116.42 1.28L116.42 1.28L116.42 1.28Q113.15 1.28 111.10-0.96L111.10-0.96L111.10-0.96Q109.38-2.94 109.38-4.93L109.38-4.93L109.38-4.93Q109.38-10.11 111.74-20.22L111.74-20.22L114.11-32.64L127.10-33.92L123.20-13.70L123.20-13.70Q122.11-8.96 122.11-7.30L122.11-7.30L122.11-7.30Q122.11-3.65 124.74-3.52ZM115.26-41.54L115.26-41.54L115.26-41.54Q115.26-44.03 117.34-45.38L117.34-45.38L117.34-45.38Q119.42-46.72 122.43-46.72L122.43-46.72L122.43-46.72Q125.44-46.72 127.26-45.38L127.26-45.38L127.26-45.38Q129.09-44.03 129.09-41.54L129.09-41.54L129.09-41.54Q129.09-39.04 127.07-37.76L127.07-37.76L127.07-37.76Q125.06-36.48 122.05-36.48L122.05-36.48L122.05-36.48Q119.04-36.48 117.15-37.76L117.15-37.76L117.15-37.76Q115.26-39.04 115.26-41.54ZM144.13 1.28L144.13 1.28L144.13 1.28Q130.05 1.28 130.05-11.97L130.05-11.97L130.05-11.97Q130.05-21.38 135.23-27.46L135.23-27.46L135.23-27.46Q140.74-33.92 150.27-33.92L150.27-33.92L150.27-33.92Q157.18-33.92 160.70-30.72L160.70-30.72L160.70-30.72Q164.22-27.52 164.22-20.80L164.22-20.80L164.22-20.80Q164.22-10.56 158.72-4.61L158.72-4.61L158.72-4.61Q153.34 1.28 144.13 1.28ZM145.79-26.56L145.79-26.56L145.79-26.56Q145.02-24.83 144.42-22.24L144.42-22.24L144.42-22.24Q143.81-19.65 143.04-15.55L143.04-15.55L143.04-15.55Q142.27-11.46 142.27-6.40L142.27-6.40L142.27-6.40Q142.27-4.74 142.82-3.65L142.82-3.65L142.82-3.65Q143.36-2.56 144.83-2.56L144.83-2.56L144.83-2.56Q146.30-2.56 147.23-3.26L147.23-3.26L147.23-3.26Q148.16-3.97 148.86-5.63L148.86-5.63L148.86-5.63Q150.14-8.58 151.17-14.05L151.17-14.05L151.17-14.05Q152.19-19.52 152.29-21.89L152.29-21.89L152.29-21.89Q152.38-24.26 152.38-26.02L152.38-26.02L152.38-26.02Q152.38-27.78 151.87-28.93L151.87-28.93L151.87-28.93Q151.36-30.08 149.92-30.08L149.92-30.08L149.92-30.08Q148.48-30.08 147.52-29.18L147.52-29.18L147.52-29.18Q146.56-28.29 145.79-26.56ZM195.07 1.28L195.07 1.28L195.07 1.28Q187.33 1.28 187.33-4.74L187.33-4.74L187.33-4.74Q187.39-6.40 187.90-9.22L187.90-9.22L189.06-15.10L189.06-15.10Q190.78-23.42 190.78-25.28L190.78-25.28L190.78-25.28Q190.78-28.99 188.61-28.99L188.61-28.99L188.61-28.99Q184.96-28.99 183.04-19.46L183.04-19.46L179.26 0L166.40 1.28L173.06-32.70L183.55-33.92L182.53-27.65L182.53-27.65Q185.54-33.92 194.75-33.92L194.75-33.92L194.75-33.92Q199.23-33.92 201.12-32.03L201.12-32.03L201.12-32.03Q203.01-30.14 203.01-25.92L203.01-25.92L203.01-25.92Q203.01-21.95 200.96-12.67L200.96-12.67L200.96-12.67Q200.00-8.51 200.00-6.94L200.00-6.94L200.00-6.94Q200.00-5.38 200.86-4.48L200.86-4.48L200.86-4.48Q201.73-3.58 203.01-3.46L203.01-3.46L203.01-3.46Q202.37-1.28 200.16 0L200.16 0L200.16 0Q197.95 1.28 195.07 1.28ZM210.91-1.92L210.91-1.92L210.91-1.92Q209.41-3.58 208.74-6.21L208.74-6.21L208.74-6.21Q208.06-8.83 208.06-13.12L208.06-13.12L208.06-13.12Q208.06-17.41 209.54-21.31L209.54-21.31L209.54-21.31Q211.01-25.22 213.70-28.03L213.70-28.03L213.70-28.03Q219.20-33.92 228.29-33.92L228.29-33.92L228.29-33.92Q231.55-33.92 233.92-32.83L233.92-32.83L244.86-33.92L240.13-8.96L240.13-8.96Q239.94-8.19 239.94-6.78L239.94-6.78L239.94-6.78Q239.94-5.38 240.80-4.48L240.80-4.48L240.80-4.48Q241.66-3.58 242.94-3.46L242.94-3.46L242.94-3.46Q242.30-1.28 239.97 0L239.97 0L239.97 0Q237.63 1.28 235.01 1.28L235.01 1.28L235.01 1.28Q232.38 1.28 230.62 0.29L230.62 0.29L230.62 0.29Q228.86-0.70 228.35-2.37L228.35-2.37L228.35-2.37Q227.33-0.77 225.15 0.26L225.15 0.26L225.15 0.26Q222.98 1.28 220.06 1.28L220.06 1.28L220.06 1.28Q217.15 1.28 214.78 0.51L214.78 0.51L214.78 0.51Q212.42-0.26 210.91-1.92ZM224.42-27.90L224.42-27.90L224.42-27.90Q223.68-26.75 223.04-24.80L223.04-24.80L223.04-24.80Q222.40-22.85 221.34-17.63L221.34-17.63L221.34-17.63Q220.29-12.42 220.29-8.70L220.29-8.70L220.29-8.70Q220.29-4.99 220.86-3.90L220.86-3.90L220.86-3.90Q221.44-2.82 222.46-2.82L222.46-2.82L222.46-2.82Q224.51-2.82 226.02-4.77L226.02-4.77L226.02-4.77Q227.52-6.72 228.10-10.18L228.10-10.18L231.49-28.93L231.49-28.93Q230.14-30.08 228.58-30.08L228.58-30.08L228.58-30.08Q227.01-30.08 226.08-29.57L226.08-29.57L226.08-29.57Q225.15-29.06 224.42-27.90ZM263.62-3.52L263.62-3.52L263.62-3.52Q261.63 1.28 255.30 1.28L255.30 1.28L255.30 1.28Q252.10 1.28 250.05-0.96L250.05-0.96L250.05-0.96Q248.38-2.82 248.38-4.93L248.38-4.93L248.38-4.93Q248.38-9.73 250.62-20.22L250.62-20.22L255.30-44.80L268.29-46.08L262.08-13.70L262.08-13.70Q260.99-8.96 260.99-7.30L260.99-7.30L260.99-7.30Q260.99-3.65 263.62-3.52ZM283.84-39.68L283.84-39.68L283.84-39.68Q285.70-43.52 290.85-43.52L290.85-43.52L290.85-43.52Q296-43.52 298.40-40.54L298.40-40.54L298.40-40.54Q300.80-37.57 300.80-30.72L300.80-30.72L300.80-7.87L316.35-42.18L323.97-42.18L304.06 0L289.09 0L287.17-30.72L287.17-30.72Q286.98-34.11 286.05-36.42L286.05-36.42L286.05-36.42Q285.12-38.72 283.84-39.68ZM336.77-3.52L336.77-3.52L336.77-3.52Q334.78 1.28 328.45 1.28L328.45 1.28L328.45 1.28Q325.18 1.28 323.14-0.96L323.14-0.96L323.14-0.96Q321.41-2.94 321.41-4.93L321.41-4.93L321.41-4.93Q321.41-10.11 323.78-20.22L323.78-20.22L326.14-32.64L339.14-33.92L335.23-13.70L335.23-13.70Q334.14-8.96 334.14-7.30L334.14-7.30L334.14-7.30Q334.14-3.65 336.77-3.52ZM327.30-41.54L327.30-41.54L327.30-41.54Q327.30-44.03 329.38-45.38L329.38-45.38L329.38-45.38Q331.46-46.72 334.46-46.72L334.46-46.72L334.46-46.72Q337.47-46.72 339.30-45.38L339.30-45.38L339.30-45.38Q341.12-44.03 341.12-41.54L341.12-41.54L341.12-41.54Q341.12-39.04 339.10-37.76L339.10-37.76L339.10-37.76Q337.09-36.48 334.08-36.48L334.08-36.48L334.08-36.48Q331.07-36.48 329.18-37.76L329.18-37.76L329.18-37.76Q327.30-39.04 327.30-41.54ZM357.50-3.52L357.50-3.52L357.50-3.52Q355.52 1.28 349.18 1.28L349.18 1.28L349.18 1.28Q345.98 1.28 343.94-0.96L343.94-0.96L343.94-0.96Q342.27-2.82 342.27-4.93L342.27-4.93L342.27-4.93Q342.27-9.73 344.51-20.22L344.51-20.22L349.18-44.80L362.18-46.08L355.97-13.70L355.97-13.70Q354.88-8.96 354.88-7.30L354.88-7.30L354.88-7.30Q354.88-3.65 357.50-3.52ZM378.24-3.52L378.24-3.52L378.24-3.52Q376.26 1.28 369.92 1.28L369.92 1.28L369.92 1.28Q366.72 1.28 364.67-0.96L364.67-0.96L364.67-0.96Q363.01-2.82 363.01-4.93L363.01-4.93L363.01-4.93Q363.01-9.73 365.25-20.22L365.25-20.22L369.92-44.80L382.91-46.08L376.70-13.70L376.70-13.70Q375.62-8.96 375.62-7.30L375.62-7.30L375.62-7.30Q375.62-3.65 378.24-3.52ZM386.46-1.92L386.46-1.92L386.46-1.92Q384.96-3.58 384.29-6.21L384.29-6.21L384.29-6.21Q383.62-8.83 383.62-13.12L383.62-13.12L383.62-13.12Q383.62-17.41 385.09-21.31L385.09-21.31L385.09-21.31Q386.56-25.22 389.25-28.03L389.25-28.03L389.25-28.03Q394.75-33.92 403.84-33.92L403.84-33.92L403.84-33.92Q407.10-33.92 409.47-32.83L409.47-32.83L420.42-33.92L415.68-8.96L415.68-8.96Q415.49-8.19 415.49-6.78L415.49-6.78L415.49-6.78Q415.49-5.38 416.35-4.48L416.35-4.48L416.35-4.48Q417.22-3.58 418.50-3.46L418.50-3.46L418.50-3.46Q417.86-1.28 415.52 0L415.52 0L415.52 0Q413.18 1.28 410.56 1.28L410.56 1.28L410.56 1.28Q407.94 1.28 406.18 0.29L406.18 0.29L406.18 0.29Q404.42-0.70 403.90-2.37L403.90-2.37L403.90-2.37Q402.88-0.77 400.70 0.26L400.70 0.26L400.70 0.26Q398.53 1.28 395.62 1.28L395.62 1.28L395.62 1.28Q392.70 1.28 390.34 0.51L390.34 0.51L390.34 0.51Q387.97-0.26 386.46-1.92ZM399.97-27.90L399.97-27.90L399.97-27.90Q399.23-26.75 398.59-24.80L398.59-24.80L398.59-24.80Q397.95-22.85 396.90-17.63L396.90-17.63L396.90-17.63Q395.84-12.42 395.84-8.70L395.84-8.70L395.84-8.70Q395.84-4.99 396.42-3.90L396.42-3.90L396.42-3.90Q396.99-2.82 398.02-2.82L398.02-2.82L398.02-2.82Q400.06-2.82 401.57-4.77L401.57-4.77L401.57-4.77Q403.07-6.72 403.65-10.18L403.65-10.18L407.04-28.93L407.04-28.93Q405.70-30.08 404.13-30.08L404.13-30.08L404.13-30.08Q402.56-30.08 401.63-29.57L401.63-29.57L401.63-29.57Q400.70-29.06 399.97-27.90ZM428.16-26.75L428.16-26.75L428.16-26.75Q430.34-29.82 433.63-31.87L433.63-31.87L433.63-31.87Q436.93-33.92 440.96-33.92L440.96-33.92L440.96-33.92Q444.99-33.92 446.91-32.64L446.91-32.64L459.46-33.92L455.10-9.34L455.10-9.34Q452.86 3.20 448.13 8.13L448.13 8.13L448.13 8.13Q443.58 12.80 434.75 12.80L434.75 12.80L434.75 12.80Q428.03 12.80 424.19 10.69L424.19 10.69L424.19 10.69Q420.35 8.58 420.35 5.06L420.35 5.06L420.35 5.06Q420.35 2.43 422.34 0.93L422.34 0.93L422.34 0.93Q424.32-0.58 427.39-0.58L427.39-0.58L427.39-0.58Q430.08-0.58 432.13 0.64L432.13 0.64L432.13 0.64Q433.34 1.28 433.92 2.18L433.92 2.18L433.92 2.18Q432.45 3.46 432.45 5.57L432.45 5.57L432.45 5.57Q432.45 8.32 435.01 8.32L435.01 8.32L435.01 8.32Q439.30 8.32 441.73-1.79L441.73-1.79L441.73-1.79Q442.43-4.54 443.01-7.30L443.01-7.30L443.01-7.30Q440.13-3.78 433.60-3.78L433.60-3.78L433.60-3.78Q429.06-3.78 426.43-5.95L426.43-5.95L426.43-5.95Q423.81-8.13 423.81-13.25L423.81-13.25L423.81-13.25Q423.81-16.45 424.90-20.06L424.90-20.06L424.90-20.06Q425.98-23.68 428.16-26.75ZM436.48-13.06L436.48-13.06L436.48-13.06Q436.48-8.70 438.72-8.70L438.72-8.70L438.72-8.70Q440.26-8.70 441.73-10.37L441.73-10.37L441.73-10.37Q442.88-11.71 443.33-13.70L443.33-13.70L446.59-30.14L446.59-30.14Q446.27-30.21 445.95-30.34L445.95-30.34L445.95-30.34Q445.31-30.59 444.48-30.59L444.48-30.59L444.48-30.59Q440.58-30.59 438.27-24.19L438.27-24.19L438.27-24.19Q436.48-19.20 436.48-13.06ZM487.87-10.82L487.87-10.82L487.87-10.82Q489.47-9.73 489.47-7.33L489.47-7.33L489.47-7.33Q489.47-4.93 488.26-3.39L488.26-3.39L488.26-3.39Q487.04-1.86 485.06-0.83L485.06-0.83L485.06-0.83Q480.96 1.28 476.54 1.28L476.54 1.28L476.54 1.28Q472.13 1.28 469.54 0.32L469.54 0.32L469.54 0.32Q466.94-0.64 465.22-2.43L465.22-2.43L465.22-2.43Q461.82-5.82 461.82-12.03L461.82-12.03L461.82-12.03Q461.82-21.70 467.07-27.58L467.07-27.58L467.07-27.58Q472.70-33.92 482.50-33.92L482.50-33.92L482.50-33.92Q488.58-33.92 491.58-31.36L491.58-31.36L491.58-31.36Q493.82-29.44 493.82-26.30L493.82-26.30L493.82-26.30Q493.82-15.04 474.37-15.04L474.37-15.04L474.37-15.04Q474.11-13.38 474.11-11.97L474.11-11.97L474.11-11.97Q474.11-9.02 475.42-7.90L475.42-7.90L475.42-7.90Q476.74-6.78 479.17-6.78L479.17-6.78L479.17-6.78Q481.60-6.78 484.19-7.90L484.19-7.90L484.19-7.90Q486.78-9.02 487.87-10.82ZM474.82-17.79L474.82-17.79L474.82-17.79Q479.36-17.79 481.98-20.61L481.98-20.61L481.98-20.61Q484.61-23.30 484.61-27.58L484.61-27.58L484.61-27.58Q484.61-29.06 484.06-29.86L484.06-29.86L484.06-29.86Q483.52-30.66 482.43-30.66L482.43-30.66L482.43-30.66Q481.34-30.66 480.42-30.24L480.42-30.24L480.42-30.24Q479.49-29.82 478.53-28.42L478.53-28.42L478.53-28.42Q476.16-25.22 474.82-17.79Z" fill="url(#editing-gradow-gradient)"></path></g></g><style>text {
  font-size: 64px;
  font-family: Arial Black;
  dominant-baseline: central;
  text-anchor: middle;
}</style></svg>